<?xml version="1.0" encoding="UTF-8" standalone="no"?>
<!-- Created with Inkscape (http://www.inkscape.org/) -->

<svg
   width="111.20968mm"
   height="111.20968mm"
   viewBox="0 0 111.20968 111.20968"
   version="1.1"
   id="svg1"
   xmlns:xlink="http://www.w3.org/1999/xlink"
   xmlns="http://www.w3.org/2000/svg"
   xmlns:svg="http://www.w3.org/2000/svg">
  <defs
     id="defs1">
    <linearGradient
       xlink:href="#linearGradient1"
       id="linearGradient3"
       gradientUnits="userSpaceOnUse"
       x1="129.8987"
       y1="181.99385"
       x2="129.8987"
       y2="109.6276" />
    <linearGradient
       id="linearGradient1">
      <stop
         style="stop-color:#d03831;stop-opacity:1;"
         offset="0.41473991"
         id="stop1" />
      <stop
         style="stop-color:#d03831;stop-opacity:0.54562044;"
         offset="0.81502891"
         id="stop2" />
      <stop
         style="stop-color:#d03831;stop-opacity:0.18613139;"
         offset="0.99855489"
         id="stop3" />
    </linearGradient>
    <linearGradient
       id="linearGradient6"
       gradientTransform="scale(0.93067071,1.0744939)"
       x1="83.748772"
       y1="132.62811"
       x2="134.92821"
       y2="132.62811"
       gradientUnits="userSpaceOnUse">
      <stop
         style="stop-color:#d03831;stop-opacity:1;"
         offset="0.41473991"
         id="stop4" />
      <stop
         style="stop-color:#d03831;stop-opacity:0.54562044;"
         offset="0.81502891"
         id="stop5" />
      <stop
         style="stop-color:#d03831;stop-opacity:0.18613139;"
         offset="0.99855489"
         id="stop6" />
    </linearGradient>
    <linearGradient
       xlink:href="#linearGradient17"
       id="linearGradient19"
       x1="129.90135"
       y1="94.800224"
       x2="129.90135"
       y2="172.73756"
       gradientUnits="userSpaceOnUse" />
    <linearGradient
       id="linearGradient17">
      <stop
         style="stop-color:#ff3131;stop-opacity:1;"
         offset="0"
         id="stop20" />
      <stop
         style="stop-color:#f2f9ff;stop-opacity:0;"
         offset="1"
         id="stop21" />
    </linearGradient>
    <linearGradient
       xlink:href="#linearGradient24"
       id="linearGradient21"
       gradientUnits="userSpaceOnUse"
       x1="149.38574"
       y1="100.02102"
       x2="110.41704"
       y2="167.5168" />
    <linearGradient
       id="linearGradient24">
      <stop
         style="stop-color:#ff3131;stop-opacity:1;"
         offset="0.10401891"
         id="stop23" />
      <stop
         style="stop-color:#f2f9ff;stop-opacity:0;"
         offset="0.64984226"
         id="stop24" />
    </linearGradient>
    <linearGradient
       xlink:href="#linearGradient17-1"
       id="linearGradient22"
       gradientUnits="userSpaceOnUse"
       x1="110.41702"
       y1="100.02103"
       x2="149.38568"
       y2="167.51675" />
    <linearGradient
       id="linearGradient17-1">
      <stop
         style="stop-color:#ff3131;stop-opacity:1;"
         offset="0.10638298"
         id="stop19" />
      <stop
         style="stop-color:#f2f9ff;stop-opacity:0;"
         offset="0.59936911"
         id="stop22" />
    </linearGradient>
    <linearGradient
       xlink:href="#linearGradient851"
       id="linearGradient852"
       x1="118.77145"
       y1="158.73622"
       x2="105.73347"
       y2="181.31865"
       gradientUnits="userSpaceOnUse" />
    <linearGradient
       id="linearGradient851">
      <stop
         style="stop-color:#cd2e2e;stop-opacity:1;"
         offset="0"
         id="stop851" />
      <stop
         style="stop-color:#5f74cc;stop-opacity:0;"
         offset="0.82742316"
         id="stop852" />
    </linearGradient>
    <linearGradient
       xlink:href="#linearGradient854"
       id="linearGradient855"
       x1="107.26515"
       y1="143.39305"
       x2="107.89261"
       y2="146.41925"
       gradientUnits="userSpaceOnUse"
       gradientTransform="matrix(1,0.12583549,0,1,0,-12.622806)" />
    <linearGradient
       id="linearGradient854">
      <stop
         style="stop-color:#b02f23;stop-opacity:1;"
         offset="0"
         id="stop854" />
      <stop
         style="stop-color:#511510;stop-opacity:1;"
         offset="1"
         id="stop855" />
    </linearGradient>
    <linearGradient
       xlink:href="#linearGradient1"
       id="linearGradient8"
       gradientUnits="userSpaceOnUse"
       x1="129.8987"
       y1="181.99385"
       x2="129.8987"
       y2="109.6276" />
    <linearGradient
       xlink:href="#linearGradient1"
       id="linearGradient9"
       gradientUnits="userSpaceOnUse"
       x1="129.8987"
       y1="181.99385"
       x2="129.8987"
       y2="109.6276" />
    <linearGradient
       xlink:href="#linearGradient1"
       id="linearGradient10"
       gradientUnits="userSpaceOnUse"
       x1="129.8987"
       y1="181.99385"
       x2="129.8987"
       y2="109.6276" />
    <linearGradient
       xlink:href="#linearGradient1"
       id="linearGradient11"
       gradientUnits="userSpaceOnUse"
       x1="129.8987"
       y1="181.99385"
       x2="129.8987"
       y2="109.6276" />
  </defs>
  <g
     id="layer1"
     style="display:none"
     transform="translate(-43.988069,-70.819257)">
    <rect
       style="opacity:0;fill:#ffffff;stroke-width:6.00001;stroke-linejoin:round"
       id="rect7"
       width="139.48326"
       height="110.04089"
       x="80.230484"
       y="34.474258"
       ry="30.730484" />
    <g
       id="layer1-8"
       transform="translate(-25.980751,-10.009155)">
      <rect
         style="display:inline;opacity:0;fill:#222034;fill-opacity:1;stroke:none;stroke-width:2.75941;stroke-dasharray:none;stroke-opacity:1"
         id="rect857"
         width="138.564"
         height="138.564"
         x="60.621765"
         y="66.587502" />
      <g
         id="g90"
         style="display:inline">
        <path
           d="m 134.23418,72.499967 v 54.999743 l 47.6312,-27.49961 z"
           style="display:inline;fill:url(#linearGradient8);stroke-width:5.56644"
           id="path90" />
        <path
           d="m 186.19535,107.4999 -47.63068,27.50013 47.63068,27.50013 z"
           style="display:inline;fill:url(#linearGradient9);stroke-width:5.56644"
           id="path89" />
        <path
           d="m 181.86538,169.99996 -47.6312,-27.49961 v 54.99974 z"
           style="display:inline;fill:url(#linearGradient10);stroke-width:5.56644"
           id="path88" />
        <path
           d="M 125.57373,197.50009 V 142.5081 l -47.631201,27.49186 z"
           style="display:inline;fill:url(#linearGradient6);stroke-width:5.56644"
           id="path87" />
        <path
           d="m 125.5634,127.49403 0.01,-54.994063 -47.630681,27.500133 z"
           style="display:inline;fill:url(#linearGradient11);stroke-width:5.56644"
           id="path86" />
        <path
           d="M 73.612044,162.50016 121.24376,135.00003 73.612044,107.4999 Z"
           style="display:inline;fill:url(#linearGradient3);stroke-width:5.56644"
           id="path85" />
      </g>
      <g
         id="g1143"
         style="display:inline"
         clip-path="none">
        <g
           id="g1102"
           style="display:inline;fill:#d6dcf3;fill-opacity:1;stroke:none;stroke-width:5.56644;stroke-dasharray:none;stroke-opacity:1"
           transform="matrix(-1.0004925,0,0,-1.0004925,259.87158,290.0947)">
          <path
             id="path1099"
             style="display:inline;fill:#f2f9ff;stroke-width:0.001"
             d="M 110.41813,64.55551 83.582326,80.121872 110.41813,95.688834 137.25394,80.122472 Z m -35.780716,20.755507 -4.47299,2.594572 v 46.700251 l 35.781256,20.7556 v -51.88888 z m 71.561966,8.5e-5 -31.30826,18.161468 v 51.88888 l 35.78072,-20.75551 V 87.905685 Z"
             transform="matrix(-0.96766441,1.1437994e-6,0,-0.96311437,236.7516,252.17524)" />
          <path
             id="path1100"
             style="display:inline;fill:#d6dcf3;fill-opacity:1;stroke:none;stroke-width:5.56644;stroke-dasharray:none;stroke-opacity:1"
             d="m 168.85547,167.51218 5.1e-4,-44.97768 -34.62424,-19.98997 v 44.97769 z" />
          <path
             id="path1101"
             style="display:inline;fill:#d6dcf3;fill-opacity:1;stroke:none;stroke-width:5.56644;stroke-dasharray:none;stroke-opacity:1"
             d="M 90.951823,167.51218 125.57555,147.52222 V 102.54453 L 90.951823,122.5345 Z" />
          <path
             id="path1102"
             style="display:inline;fill:#f2f9ff;fill-opacity:1;stroke:none;stroke-width:0.00099951;stroke-dasharray:none;stroke-opacity:1"
             d="m 129.9039,189.98966 25.96444,-14.98292 -25.96444,-14.99066 -25.96495,14.99066 z m 34.6227,-19.97912 4.32938,-2.49836 -34.62424,-19.98996 v 4.99723 z m -69.245907,0 30.294857,-17.49109 v -4.99723 l -34.623727,19.98996 z" />
        </g>
        <path
           id="path1947"
           style="baseline-shift:baseline;display:inline;overflow:visible;opacity:0.07;vector-effect:none;fill:#6e1b1b;stroke-linejoin:round;enable-background:accumulate;stop-color:#000000;stop-opacity:1"
           d="m 125.78354,102.3891 -0.40153,0.23151 4.1212,2.37918 -3.92896,2.26808 -4.12172,-2.3797 -0.40204,0.23203 4.12223,2.3797 -3.92896,2.26808 -4.12274,-2.38022 -0.40153,0.23203 4.12275,2.38021 -3.92845,2.26808 -4.12378,-2.38073 -0.40204,0.23151 4.1243,2.38125 -3.92896,2.26808 -4.12481,-2.38177 -0.40153,0.23203 4.12481,2.38125 -3.92844,2.26859 -4.12585,-2.38228 -0.20102,0.11576 25.97723,14.99805 25.97722,-14.99805 -0.2005,-0.11576 -4.12585,2.38228 -3.92947,-2.26859 4.12533,-2.38177 -0.40101,-0.23099 -4.12481,2.38125 -3.92948,-2.2686 4.12378,-2.38073 -0.40049,-0.23151 -4.1243,2.38125 -3.92948,-2.26911 4.12327,-2.38022 -0.40101,-0.23151 -4.12275,2.38022 -3.92947,-2.26808 4.12171,-2.3797 -0.40101,-0.23151 -4.12171,2.3797 -3.92948,-2.26911 4.12068,-2.37867 -0.40049,-0.23099 -4.12016,2.37866 z m 4.11964,2.8422 3.92948,2.2686 -3.92844,2.26808 -3.92948,-2.2686 z m -4.32997,2.50011 3.92948,2.26859 -3.92896,2.26808 -3.92948,-2.26859 z m 8.66046,0 3.92947,2.26808 -3.92896,2.26859 -3.92947,-2.26859 z m -12.99094,2.49959 3.92947,2.26859 -3.92895,2.2686 -3.92896,-2.2686 z m 17.32142,0 3.92948,2.26859 -3.92948,2.2686 -3.92947,-2.2686 z m -8.66097,5.1e-4 3.92948,2.26808 -3.92896,2.2686 -3.92896,-2.2686 z m -12.99042,2.49959 3.92948,2.2686 -3.92896,2.26859 -3.92948,-2.26859 z m 8.66045,0 3.92948,2.2686 -3.92948,2.26859 -3.92896,-2.26859 z m 8.66046,0 3.92947,2.2686 -3.92896,2.26859 -3.92947,-2.26859 z m 8.66045,0 3.92948,2.2686 -3.92896,2.26859 -3.92948,-2.26859 z m -30.31133,2.50011 3.92948,2.26859 -3.92896,2.26808 -3.92948,-2.26859 z m 8.66046,0 3.92947,2.26859 -3.92947,2.2686 -3.92896,-2.2686 z m 8.66045,0 3.92947,2.26859 -3.92947,2.2686 -3.92948,-2.2686 z m 8.66045,0 3.92948,2.26859 -3.92948,2.2686 -3.92947,-2.2686 z m 8.66046,0 3.92947,2.26859 -3.92999,2.2686 -3.92896,-2.2686 z m -21.6514,2.49959 3.93,2.26911 -3.92948,2.2686 -3.92999,-2.26912 z m 8.66046,0 3.92999,2.26911 -3.92999,2.2686 -3.92948,-2.2686 z m 8.66045,0 3.92948,2.26859 -3.92948,2.26912 -3.92948,-2.2686 z m -25.98136,5.2e-4 3.92948,2.26859 -3.92896,2.26808 -3.92896,-2.2686 z m 47.6312,2.26911 -30.30978,17.4997 v 0.23048 l 4.13102,2.38487 v 4.76818 l -3.93206,2.27015 v -4.65398 a 0.20002,0.20002 0 0 0 -0.0992,-0.17363 l -0.0997,-0.0574 v 45.23083 l 0.19896,-0.11473 v -4.76818 l 3.93206,-2.27015 v 4.76819 l 0.39842,-0.23048 v -4.76767 l 3.93155,-2.26962 v 4.76766 l 0.39842,-0.22996 v -4.76818 l 3.93154,-2.26963 v 4.76767 l 0.39843,-0.22996 v -4.76767 l 3.93154,-2.27015 v 4.76819 l 0.39843,-0.22996 v -4.76819 l 3.93154,-2.27014 v 4.76818 l 0.39843,-0.22996 v -4.76818 l 3.93206,-2.27015 v 4.76819 l 0.39842,-0.22996 v -4.76819 l 3.93154,-2.27014 v 4.76818 l 0.39843,-0.22996 v -4.76818 l 4.13101,-2.38487 v -0.4625 l -4.13101,2.38486 v -4.53771 l 4.13101,-2.38486 v -0.46251 l -4.13101,2.38487 v -4.53719 l 4.13101,-2.38487 v -0.4625 l -4.13101,2.38487 v -4.53771 l 4.13101,-2.38487 v -0.4625 l -4.13101,2.38486 v -4.53719 l 4.13101,-2.38486 v -0.46251 l -4.13101,2.38487 v -4.53771 l 4.13101,-2.38487 v -0.46353 l -4.13101,2.38486 v -4.53615 l 4.13101,-2.38487 v -0.46405 l -4.13101,2.38486 v -4.53615 l 4.13101,-2.38487 v -0.46354 l -4.13101,2.38487 v -4.65295 a 0.20002,0.20002 0 0 0 -0.0997,-0.17415 l -4.02817,-2.32595 4.12894,-2.38332 z m -69.280007,5.1e-4 -0.200505,0.11576 4.127913,2.3828 -4.029211,2.32647 a 0.20002,0.20002 0 0 0 -0.09973,0.17415 v 4.65346 l -4.129464,-2.38435 v 0.46251 l 4.129464,2.38435 v 4.53771 l -4.129464,-2.38435 v 0.46198 l 4.129464,2.38435 v 4.53771 l -4.129464,-2.38435 v 0.46199 l 4.129464,2.38435 v 4.53822 l -4.129464,-2.38435 v 0.46199 l 4.129464,2.38435 v 4.53771 l -4.129981,-2.38435 v 0.46198 l 4.129981,2.38435 v 4.53823 l -4.129981,-2.38435 v 0.46199 l 4.129981,2.38435 v 4.5377 l -4.129981,-2.38435 v 0.46199 l 4.129981,2.38435 v 4.53823 l -4.129981,-2.38435 v 0.46198 l 4.129981,2.38435 v 4.7687 l 0.400492,0.23151 v -4.7687 l 3.929476,2.2686 v 4.7687 l 0.400492,0.23099 v -4.7687 l 3.93,2.26911 v 4.76871 l 0.39996,0.23099 v -4.7687 l 3.93001,2.26911 v 4.76818 l 0.40049,0.23152 v -4.76871 l 3.92947,2.2686 v 4.7687 l 0.4005,0.23151 v -4.7687 l 3.92946,2.2686 v 4.7687 l 0.40049,0.23099 v -4.7687 l 3.92948,2.26859 v 4.76871 l 0.4005,0.23151 v -4.76871 l 3.93,2.2686 v 4.7687 l 0.2005,0.11576 v -45.23083 l -0.0992,0.0574 a 0.20002,0.20002 0 0 0 -0.10128,0.17363 v 4.65346 l -3.93,-2.26859 v -4.76922 l 4.1305,-2.38435 v -0.231 z m 25.979297,0.22996 3.92947,2.2686 -3.92896,2.26859 -3.92999,-2.26859 z m 8.66045,0 3.92947,2.2686 -3.92947,2.26911 -3.92948,-2.26911 z m 8.66045,0 3.92948,2.2686 -3.92999,2.26911 -3.92948,-2.26911 z m -38.971779,2.50011 3.929479,2.2686 -4.029732,2.32647 a 0.20002,0.20002 0 0 0 -0.09974,0.17415 v 4.65294 l -3.929476,-2.26859 v -4.76922 z m 25.981359,0 3.92948,2.2686 -3.92948,2.26859 -3.92948,-2.26859 z m 8.66045,0 3.92948,2.2686 -3.92999,2.26859 -3.92948,-2.26859 z m 25.98188,0 4.12946,2.38435 v 4.76767 l -3.93154,2.27014 v -4.65294 a 0.20002,0.20002 0 0 0 -0.0997,-0.17415 l -4.0287,-2.32596 z m -56.2932,2.50011 3.92895,2.26859 -4.02972,2.32647 a 0.20002,0.20002 0 0 0 -0.0992,0.17364 v 4.65398 l -3.929995,-2.26912 v -4.76921 z m 25.98084,0 3.92947,2.26807 -3.92947,2.26912 -3.92948,-2.2686 z m 25.98188,0 4.12998,2.38435 v 4.76766 l -3.93206,2.27015 v -4.65346 a 0.20002,0.20002 0 0 0 -0.0992,-0.17364 l -4.0287,-2.32595 z m -47.63276,2.49958 3.93,2.26912 -4.03025,2.32647 a 0.20002,0.20002 0 0 0 -0.0997,0.17363 v 4.65347 l -3.93,-2.2686 v -4.76973 z m 43.30279,0 4.12946,2.38436 v 4.7687 l -3.93154,2.26963 v -4.65347 a 0.20002,0.20002 0 0 0 -0.0997,-0.17363 l -4.02921,-2.32647 z m -38.9723,2.50011 3.92947,2.2686 -4.03024,2.32699 a 0.20002,0.20002 0 0 0 -0.0997,0.17363 v 4.65346 l -3.92947,-2.26859 v -4.76974 z m 34.64181,0 4.12998,2.38435 v 4.76819 l -3.93154,2.27014 v -4.65346 a 0.20002,0.20002 0 0 0 -0.0997,-0.17363 l -4.02921,-2.32648 z m 17.1204,0.11576 v 4.53667 l -3.93154,2.26963 v -4.53668 z m -68.882613,5.1e-4 3.929476,2.2686 v 4.53771 l -3.929476,-2.2686 z m 21.450373,2.38384 3.92947,2.26807 -4.03024,2.32699 a 0.20002,0.20002 0 0 0 -0.0997,0.17415 v 4.65347 l -3.92947,-2.26912 v -4.76921 z m 25.98136,0 4.13049,2.38435 v 4.76818 l -3.93154,2.27015 v -4.65347 a 0.20002,0.20002 0 0 0 -0.0997,-0.17415 l -4.02922,-2.32647 z m 17.12092,0.11575 v 4.53616 l -3.93206,2.27066 v -4.53667 z m -60.222685,5.2e-4 3.929995,2.26911 v 4.53771 l -3.929995,-2.26911 z m 21.450885,2.38332 3.92948,2.26859 -4.03076,2.32699 a 0.20002,0.20002 0 0 0 -0.0997,0.17415 v 4.65295 l -3.92948,-2.2686 v -4.76922 z m 17.32091,0 4.1305,2.38486 v 4.76819 l -3.93155,2.27014 v -4.65346 a 0.20002,0.20002 0 0 0 -0.0997,-0.17415 l -4.02973,-2.32647 z m 17.1204,0.11627 v 4.53667 l -3.93154,2.27015 v -4.53719 z m 8.66045,0 v 4.53615 l -3.93154,2.27015 v -4.53616 z m -68.882613,5.1e-4 3.929476,2.2686 v 4.53719 l -3.929476,-2.2686 z m 8.659933,0 3.93,2.2686 v 4.53771 l -3.93,-2.2686 z m 47.23226,2.49908 v 4.53719 l -3.93154,2.27014 v -4.53719 z m -51.562225,5.1e-4 3.929995,2.26912 v 4.5377 l -3.929995,-2.26911 z m 60.222685,0 v 4.53616 l -3.93206,2.27015 v -4.53616 z m -51.56223,5.2e-4 3.92947,2.2686 v 4.5377 l -3.92947,-2.26859 z m 38.5718,2.49907 v 4.53719 l -3.93154,2.27015 v -4.53771 z m 17.32039,0 v 4.53771 l -3.93154,2.27015 v -4.53771 z m -68.882613,5.2e-4 3.929476,2.26859 v 4.53771 l -3.929476,-2.26859 z m 8.659933,0 3.93,2.26911 v 4.53719 l -3.93,-2.26859 z m 8.66046,0 3.92947,2.26911 v 4.53771 l -3.92947,-2.26911 z m 42.90177,0 v 4.53667 l -3.93154,2.26963 v -4.53616 z m -12.9899,2.49907 v 4.53771 l -3.93155,2.27014 v -4.5377 z m -42.902295,5.2e-4 3.929995,2.26911 v 4.53771 l -3.929995,-2.2686 z m 60.222685,0 v 4.53771 l -3.93206,2.27014 v -4.53771 z m -51.56223,5.1e-4 3.92947,2.2686 v 4.53771 l -3.92947,-2.2686 z m 8.65993,0 3.92948,2.2686 v 4.53771 l -3.92948,-2.2686 z m 34.24184,0 v 4.53616 l -3.93154,2.27015 v -4.53616 z m -12.9899,2.49908 v 4.5377 l -3.93206,2.27015 v -4.53771 z m -34.24236,5.1e-4 3.93,2.26912 v 4.5377 l -3.93,-2.26911 z m 51.56223,0 v 4.53771 l -3.93154,2.27015 v -4.53771 z m 8.66045,0 v 4.53719 l -3.93154,2.27015 v -4.53719 z m -68.882613,5.2e-4 3.929476,2.2686 v 4.53719 l -3.929476,-2.2686 z m 17.320393,0 3.92947,2.2686 v 4.5377 l -3.92947,-2.26911 z m 8.65993,0 3.93,2.2686 v 4.5377 l -3.93,-2.26859 z m 25.5819,0 v 4.53616 l -3.93154,2.27014 v -4.53667 z m -47.232255,2.49959 3.929995,2.26911 v 4.53719 l -3.929995,-2.26859 z m 8.660455,0 3.92947,2.26911 v 4.53771 l -3.92947,-2.26911 z m 8.65993,0 3.92948,2.26859 v 4.53771 l -3.92948,-2.26859 z m 34.24184,0 v 4.53771 l -3.93154,2.26963 v -4.53719 z m 8.66046,0 v 4.53719 l -3.93206,2.27015 v -4.53719 z m -17.32039,5.2e-4 v 4.53615 l -3.93155,2.27015 v -4.53667 z m 21.65035,2.49907 v 4.53771 l -3.93154,2.27014 v -4.53771 z m -68.882613,5.2e-4 3.929476,2.26859 v 4.53771 l -3.929476,-2.2686 z m 8.659933,0 3.93,2.26911 v 4.53719 l -3.93,-2.26911 z m 8.66046,0 3.92947,2.26859 v 4.53771 l -3.92947,-2.2686 z m 8.65993,0 3.93,2.26859 v 4.53771 l -3.93,-2.2686 z m 16.92197,0 v 4.53667 l -3.93206,2.27015 v -4.53668 z m 8.65993,0 v 4.53719 l -3.93154,2.27014 v -4.53771 z m 8.65994,0 v 4.53719 l -3.93154,2.27014 v -4.53719 z m -55.892195,2.49958 3.929995,2.26912 v 4.5377 l -3.929995,-2.26859 z m 60.222685,0 v 4.53771 l -3.93206,2.27015 v -4.53771 z m -51.56223,5.2e-4 3.92947,2.2686 v 4.5377 l -3.92947,-2.26911 z m 8.65993,0 3.92948,2.2686 v 4.5377 l -3.92948,-2.26859 z m 25.58191,0 v 4.53719 l -3.93155,2.27015 v -4.53771 z m 8.65993,0 v 4.53719 l -3.93154,2.26963 v -4.53667 z m -47.23226,2.49959 3.93,2.26911 v 4.53771 l -3.93,-2.26911 z m 17.32039,0 3.93,2.26911 v 4.53771 l -3.93,-2.26911 z m 16.92197,0 v 4.53771 l -3.93206,2.27014 v -4.5377 z m 17.31987,0 v 4.53771 l -3.93154,2.27014 v -4.5377 z m 8.66045,0 v 4.53771 l -3.93154,2.26963 v -4.53719 z m -68.882613,5.2e-4 3.929476,2.26859 v 4.53719 l -3.929476,-2.26859 z m 17.320393,0 3.92947,2.26859 v 4.53719 l -3.92947,-2.26859 z m 34.24183,0 v 4.53667 l -3.93154,2.27015 v -4.53719 z m -47.232255,2.49959 3.929995,2.26911 v 4.53719 l -3.929995,-2.2686 z m 8.660455,0 3.92947,2.26911 v 4.53771 l -3.92947,-2.26912 z m 8.65993,0 3.92948,2.26859 v 4.53771 l -3.92948,-2.2686 z m 34.24184,0 v 4.5377 l -3.93154,2.26963 v -4.53719 z m 8.66046,0 v 4.53719 l -3.93206,2.27014 v -4.53719 z m -17.32039,5.1e-4 v 4.53668 l -3.93155,2.27014 v -4.53719 z m 21.65035,2.49907 v 4.53823 l -3.93154,2.26963 v -4.53771 z m -68.882613,5.2e-4 3.929476,2.2686 v 4.5377 l -3.929476,-2.26859 z m 8.659933,0 3.93,2.26911 v 4.53719 l -3.93,-2.26911 z m 8.66046,0 3.92947,2.2686 v 4.5377 l -3.92947,-2.26859 z m 8.65993,0 3.93,2.2686 v 4.5377 l -3.93,-2.26911 z m 16.92197,0 v 4.53719 l -3.93206,2.27015 v -4.53719 z m 8.65993,0 v 4.53719 l -3.93154,2.27015 v -4.53771 z m 8.65994,0 v 4.53719 l -3.93154,2.27015 v -4.53719 z m -55.892195,2.49959 3.929995,2.26911 v 4.53771 l -3.929995,-2.26859 z m 60.222685,0 v 4.53771 l -3.93206,2.27014 v -4.5377 z m -51.56223,5.2e-4 3.92947,2.26859 v 4.53771 l -3.92947,-2.26911 z m 8.65993,0 3.92948,2.26859 v 4.53771 l -3.92948,-2.26859 z m 25.58191,0 v 4.53719 l -3.93155,2.27014 v -4.5377 z m 8.65993,0 v 4.53719 l -3.93154,2.27014 v -4.53719 z m -47.23226,2.49959 3.93,2.26911 v 4.53771 l -3.93,-2.26912 z m 17.32039,0 3.93,2.26911 v 4.53771 l -3.93,-2.26912 z m 16.92197,0 v 4.5377 l -3.93206,2.27015 v -4.53771 z m 17.31987,0 v 4.5377 l -3.93154,2.27015 v -4.53771 z m -42.90177,5.1e-4 3.92947,2.2686 v 4.53719 l -3.92947,-2.2686 z m 34.24183,0 v 4.53719 l -3.93154,2.26963 v -4.53719 z m -38.5718,2.49959 3.92947,2.26911 v 4.53771 l -3.92947,-2.26911 z m 8.65993,0 3.92948,2.2686 v 4.53771 l -3.92948,-2.2686 z m 34.24184,0 v 4.53771 l -3.93154,2.27015 v -4.53771 z m -8.65993,5.2e-4 v 4.53667 l -3.93155,2.27015 v -4.53719 z m -29.91187,2.49959 3.92947,2.26859 v 4.53771 l -3.92947,-2.26859 z m 8.65993,0 3.93,2.26859 v 4.53771 l -3.93,-2.26911 z m 16.92197,0 v 4.53719 l -3.93206,2.27014 v -4.53719 z m 8.65993,0 v 4.53771 l -3.93154,2.26962 v -4.5377 z m -29.91187,2.5001 3.92948,2.2686 v 4.53771 l -3.92948,-2.2686 z m 25.58191,0 v 4.53719 l -3.93155,2.27015 v -4.53771 z m -21.25194,2.49959 3.93,2.26912 v 4.5377 l -3.93,-2.26911 z m 16.92197,0 v 4.53771 l -3.93206,2.27015 v -4.53771 z" />
        <g
           id="g1129"
           style="display:inline;opacity:0.280928;fill:url(#linearGradient19);stroke:none;stroke-width:5.56644;stroke-dasharray:none;stroke-opacity:1"
           transform="matrix(-1.0004925,0,0,-1.0004925,259.87158,290.0947)">
          <path
             id="path1128"
             style="display:inline;fill:url(#linearGradient21);stroke:none;stroke-width:5.56644;stroke-dasharray:none;stroke-opacity:1"
             d="M 168.85598,167.51218 V 122.5345 l -34.62424,-19.98997 v 44.97769 z" />
          <path
             id="path1129"
             style="display:inline;fill:url(#linearGradient22);stroke:none;stroke-width:5.56644;stroke-dasharray:none;stroke-opacity:1"
             d="M 90.951823,167.51218 125.57555,147.52222 V 102.54453 L 90.951823,122.5345 Z" />
        </g>
      </g>
      <g
         id="g1142"
         style="display:inline"
         transform="matrix(1.6267457,0.71704367,0,1.6267457,-54.654511,-149.52689)">
        <path
           style="display:inline;opacity:0.707373;fill:url(#linearGradient852);fill-opacity:1;stroke:none;stroke-width:5.26899;stroke-dasharray:none;stroke-opacity:1"
           d="m 99.214593,152.71842 0.333574,20.32055 25.980763,13.54745 -0.23851,-21.70879 z"
           id="path1130"
           transform="matrix(0.61472424,-0.23659226,0,0.61472424,32.560227,73.198412)" />
        <path
           style="display:inline;fill:url(#linearGradient855);fill-opacity:1"
           d="m 100.134,135.26491 c 0.22489,-0.1966 0.506,-0.32988 0.84332,-0.39987 0.33732,-0.07 0.67466,-0.0276 1.01199,0.12738 0.33733,0.15489 0.61844,0.35892 0.84333,0.61211 0.22489,0.25319 0.44977,0.50637 0.67466,0.75957 l 0.67466,0.75956 c 0.22489,0.25318 0.44978,0.50636 0.67467,0.75955 0.22489,0.25319 0.44977,0.50637 0.67466,0.75957 l 0.67466,0.75955 c 0.22489,0.25319 0.44978,0.50637 0.67467,0.75955 0.22489,0.2532 0.44977,0.50639 0.67466,0.75957 l 0.67466,0.75956 c 0.22489,0.25319 0.44978,0.50637 0.67467,0.75956 0.22489,0.25319 0.39355,0.55553 0.506,0.907 0.11244,0.35148 0.16866,0.75211 0.16866,1.20188 0,0.44978 -0.0562,0.83626 -0.16866,1.15944 -0.11245,0.32319 -0.28111,0.58307 -0.506,0.77966 -0.22489,0.19659 -0.44978,0.39318 -0.67467,0.58977 l -0.67466,0.58976 -0.67466,0.58976 c -0.22489,0.1966 -0.506,0.32989 -0.84333,0.39989 -0.33733,0.07 -0.67467,0.14 -1.012,0.20999 -0.33733,0.07 -0.61844,0.20328 -0.84333,0.39988 -0.22489,0.19658 -0.506,0.32987 -0.84333,0.39987 -0.33733,0.07 -0.73088,0.0767 -1.18066,0.0201 l -1.34931,-0.16974 c -0.44977,-0.0566 -0.843334,-0.16232 -1.180664,-0.31723 -0.33733,-0.1549 -0.61844,-0.35893 -0.843328,-0.61212 -0.224887,-0.25318 -0.505997,-0.45722 -0.843329,-0.61212 -0.337331,-0.15489 -0.674663,-0.30978 -1.011995,-0.46468 -0.337332,-0.15488 -0.618442,-0.35892 -0.843329,-0.61212 L 95.411351,146.14 94.736688,145.38044 c -0.224888,-0.25319 -0.449776,-0.50637 -0.674663,-0.75957 -0.224888,-0.25318 -0.393554,-0.55552 -0.505998,-0.907 -0.112444,-0.35147 -0.168666,-0.75211 -0.168666,-1.20189 0,-0.44977 0.05622,-0.83624 0.168666,-1.15943 0.112444,-0.32318 0.28111,-0.58306 0.505998,-0.77966 l 0.674663,-0.58976 0.674663,-0.58976 c 0.224888,-0.19659 0.449776,-0.39318 0.674664,-0.58978 l 0.674663,-0.58976 0.674664,-0.58976 c 0.224887,-0.1966 0.449775,-0.39318 0.674663,-0.58978 l 0.674663,-0.58976 0.674668,-0.58976 c 0.22488,-0.1966 0.44977,-0.39318 0.674664,-0.58977"
           id="path1131" />
        <path
           style="display:inline;fill:#94291e;fill-opacity:1"
           d="m 98.962644,136.28074 c 0.224888,-0.1966 0.505998,-0.32988 0.843329,-0.39987 0.337327,-0.07 0.674667,-0.0276 1.011997,0.12738 0.33733,0.15489 0.61844,0.35893 0.84333,0.61211 0.22489,0.25319 0.44977,0.50639 0.67466,0.75957 l 0.67466,0.75956 c 0.22489,0.25318 0.44978,0.50636 0.67467,0.75956 0.22489,0.25318 0.44977,0.50637 0.67466,0.75956 l 0.67466,0.75956 c 0.22489,0.25319 0.44978,0.50636 0.67467,0.75956 0.22489,0.25318 0.44977,0.50637 0.67466,0.75956 l 0.67466,0.75956 c 0.22489,0.25319 0.44978,0.50636 0.67467,0.75956 0.22489,0.25318 0.39355,0.55552 0.506,0.90699 0.11244,0.35148 0.16866,0.75211 0.16866,1.20188 0,0.44978 -0.0562,0.83626 -0.16866,1.15944 -0.11245,0.32319 -0.28111,0.58307 -0.506,0.77967 -0.22489,0.19658 -0.44978,0.39318 -0.67467,0.58977 l -0.67466,0.58976 -0.67466,0.58977 c -0.22489,0.19658 -0.506,0.32988 -0.84333,0.39988 -0.33733,0.07 -0.67467,0.13999 -1.012,0.20998 -0.33733,0.07 -0.61844,0.20328 -0.84333,0.39988 -0.22489,0.19658 -0.506,0.32988 -0.84333,0.39988 -0.33733,0.0699 -0.73088,0.0767 -1.18066,0.0201 l -1.349323,-0.16984 c -0.449775,-0.0566 -0.843329,-0.16232 -1.180661,-0.31723 -0.337331,-0.1549 -0.618441,-0.35892 -0.843329,-0.61212 -0.224887,-0.25318 -0.505997,-0.45722 -0.843329,-0.61212 -0.337331,-0.15489 -0.674663,-0.30978 -1.011995,-0.46467 -0.337332,-0.15489 -0.618442,-0.35893 -0.843329,-0.61213 L 94.24,147.15574 93.565337,146.39618 c -0.224888,-0.25319 -0.449776,-0.50637 -0.674663,-0.75956 -0.224888,-0.25319 -0.393554,-0.55553 -0.505998,-0.907 -0.112444,-0.35148 -0.168666,-0.7521 -0.168666,-1.20188 0,-0.44977 0.05622,-0.83626 0.168666,-1.15944 0.112444,-0.32319 0.28111,-0.58307 0.505998,-0.77966 l 0.674663,-0.58977 0.674663,-0.58976 c 0.224888,-0.19659 0.449776,-0.39318 0.674664,-0.58978 l 0.674663,-0.58976 0.674664,-0.58976 c 0.224887,-0.19659 0.449775,-0.39318 0.674663,-0.58978 l 0.674663,-0.58976 0.674664,-0.58976 c 0.224887,-0.1966 0.449775,-0.39318 0.674663,-0.58977"
           id="path1132" />
        <g
           id="g1141"
           style="display:inline;opacity:1">
          <path
             style="display:inline;fill:#2d0000;fill-opacity:1"
             d="m 98.962644,136.28074 c 0.224888,-0.19659 0.505998,-0.32988 0.843329,-0.39987 0.337327,-0.07 0.674667,-0.0275 1.011997,0.12738 0.33733,0.15489 0.61844,0.35893 0.84333,0.61211 0.22489,0.25319 0.44977,0.50638 0.67466,0.75957 l 0.67466,0.75956 c 0.22489,0.25319 0.44978,0.50637 0.67467,0.75956 l 0.67466,0.75956 0.67466,0.75956 c 0.22489,0.25319 0.44978,0.50637 0.67467,0.75956 0.22489,0.25319 0.44977,0.50638 0.67466,0.75956 l 0.67466,0.75956 c 0.22489,0.25319 0.44978,0.50637 0.67467,0.75956 0.22489,0.25319 0.39355,0.55552 0.506,0.90699 0.11244,0.35148 0.16866,0.75211 0.16866,1.20188 0,0.44978 -0.0562,0.83626 -0.16866,1.15944 -0.11245,0.32319 -0.28111,0.58308 -0.506,0.77967 l -0.67467,0.58977 -0.67466,0.58976 c -0.22489,0.19659 -0.44977,0.39318 -0.67466,0.58977 -0.22489,0.19659 -0.506,0.32989 -0.84333,0.39988 l -1.012,0.20998 c -0.33733,0.07 -0.61844,0.20329 -0.84333,0.39988 -0.22489,0.19659 -0.506,0.32988 -0.84333,0.39988 -0.33733,0.07 -0.73088,0.0767 -1.18066,0.0201 -0.44977,-0.0566 -0.89955,-0.11321 -1.349323,-0.16984 -0.449775,-0.0566 -0.843329,-0.16234 -1.180661,-0.31723 -0.337331,-0.15489 -0.618441,-0.35893 -0.843329,-0.61212 -0.224887,-0.25319 -0.505997,-0.45723 -0.843329,-0.61212 l -1.011995,-0.46467 c -0.337332,-0.15489 -0.618442,-0.35894 -0.843329,-0.61213 -0.224888,-0.25318 -0.449776,-0.50636 -0.674664,-0.75955 l -0.674663,-0.75956 -0.674663,-0.75956 c -0.224888,-0.25319 -0.393554,-0.55552 -0.505998,-0.907 -0.112444,-0.35147 -0.168666,-0.7521 -0.168666,-1.20188 0,-0.44977 0.05622,-0.83625 0.168666,-1.15944 0.112444,-0.32318 0.28111,-0.58307 0.505998,-0.77966 l 0.674663,-0.58977 0.674663,-0.58976 c 0.224888,-0.19659 0.449776,-0.39318 0.674664,-0.58978 l 0.674663,-0.58976 0.674664,-0.58976 c 0.224887,-0.19659 0.449775,-0.39318 0.674663,-0.58978 l 0.674663,-0.58976 0.674664,-0.58976 0.674663,-0.58977"
             id="path1133" />
          <path
             style="display:inline;opacity:1;fill:#720000;fill-opacity:1"
             d="m 96.949099,142.3149 4.674871,-3.598 0.52221,0.17818 c 0.36268,0.12375 0.63952,0.34051 0.86441,0.5937 l 0.67467,0.75955 0.67466,0.75956 c 0.22489,0.25319 0.44977,0.50638 0.67466,0.75956 0.22489,0.25319 0.44978,0.50638 0.67467,0.75955 l 0.67466,0.75956 c 0.22489,0.25319 0.39355,0.55553 0.506,0.907 0.11244,0.35149 0.16866,0.75212 0.16866,1.20189 0,0.44978 -0.0562,0.83626 -0.16866,1.15943 -0.11245,0.32319 -0.28111,0.58307 -0.506,0.77966 -0.22489,0.19659 -0.44977,0.39318 -0.67466,0.58977 -0.22489,0.1966 -0.506,0.32989 -0.84333,0.39988 l -1.012,0.21 c -0.33733,0.07 -0.61844,0.20328 -0.84333,0.39987 -0.22489,0.19659 -0.506,0.32988 -0.84333,0.39987 -0.33733,0.07 -0.73088,0.0767 -1.18066,0.0201 -0.44977,-0.0566 -0.89955,-0.11318 -1.349323,-0.16974 -0.449775,-0.0566 -0.843329,-0.16235 -1.180661,-0.31724 -0.337331,-0.15489 -0.569247,-0.41598 -0.695746,-0.78329 l -0.189749,-0.55097"
             id="path1134" />
          <path
             style="display:inline;opacity:1;fill:#ff0000;fill-opacity:1"
             d="m 101.6613,139.99364 0.50599,0.23235 c 0.33733,0.15489 0.506,0.34477 0.506,0.56966 0,0.22489 -0.16164,0.36619 -0.48491,0.4239 l -0.48492,0.0866 c 0.0234,0.16648 -0.53328,-0.11289 -0.71162,-0.0337 -0.73806,0.32779 -0.68181,-1.45805 -0.31617,-0.63988"
             id="path1135" />
          <path
             style="display:inline;opacity:1;fill:#aa0f01;fill-opacity:1"
             d="m 98.962644,137.63007 c 0.224888,-0.19659 0.505998,-0.32989 0.843329,-0.39988 0.337327,-0.07 0.674667,-0.0275 1.011997,0.12738 0.33733,0.1549 0.56222,0.40809 0.67466,0.75957 0.11245,0.35147 0.16867,0.7521 0.16867,1.20188 v 1.34932 c 0,0.44978 0.0562,0.85041 0.16866,1.20189 0.11245,0.35148 0.28111,0.65381 0.506,0.907 0.22489,0.25319 0.33733,0.49223 0.33733,0.71712 0,0.22489 -0.11244,0.43562 -0.33733,0.63221 -0.22489,0.19659 -0.33733,0.40732 -0.33733,0.63221 0,0.22489 0.11244,0.46393 0.33733,0.71712 0.22489,0.25319 0.33733,0.49222 0.33733,0.71711 0,0.22489 -0.11244,0.32318 -0.33733,0.29488 -0.22489,-0.0283 -0.44977,-0.16908 -0.67466,-0.42223 -0.22489,-0.25318 -0.44978,-0.39392 -0.67467,-0.42222 -0.22489,-0.0283 -0.44977,0.0558 -0.67466,0.25243 l -0.674663,0.58976 -0.674663,0.58978 c -0.224888,0.19659 -0.505998,0.32987 -0.843329,0.39986 -0.337332,0.07 -0.730886,0.0767 -1.180661,0.0201 -0.449775,-0.0566 -0.843329,-0.16234 -1.180661,-0.31723 -0.337332,-0.15489 -0.618442,-0.35893 -0.843329,-0.61212 -0.224888,-0.25318 -0.449776,-0.50637 -0.674664,-0.75956 -0.224887,-0.25319 -0.393553,-0.55552 -0.505997,-0.90701 -0.112444,-0.35147 -0.168666,-0.7521 -0.168666,-1.20188 0,-0.44977 0.05622,-0.83625 0.168666,-1.15944 0.112444,-0.32317 0.28111,-0.58306 0.505997,-0.77965 0.224888,-0.19659 0.449776,-0.39318 0.674664,-0.58977 l 0.674663,-0.58976 c 0.224888,-0.19659 0.449776,-0.39318 0.674664,-0.58977 0.224887,-0.19659 0.449775,-0.39318 0.674663,-0.58977 l 0.674663,-0.58976 c 0.224888,-0.19659 0.449776,-0.39318 0.674664,-0.58977 l 0.674663,-0.58976"
             id="path1136" />
          <path
             style="display:inline;opacity:1;fill:#ff0000;fill-opacity:1"
             d="m 98.962644,138.9794 c 0.224888,-0.19659 0.449776,-0.28074 0.674663,-0.25244 0.224888,0.0283 0.337332,0.15493 0.337332,0.37978 0,0.22489 -0.112444,0.43562 -0.337332,0.63221 -0.224887,0.19659 -0.337331,0.40732 -0.337331,0.63221 0,0.22489 0.112444,0.46393 0.337331,0.71712 l 0.674663,0.75956 0.67466,0.75956 c 0.22489,0.25319 0.33734,0.49223 0.33734,0.71712 0,0.22489 -0.16867,0.37232 -0.506,0.44231 -0.80645,0.16734 -0.0911,0.0189 0.253,-0.0526 l -0.253,0.0526 c -0.16868,0.0351 -0.33733,0.0418 -0.506,0.0205 -0.067,-0.19237 -0.16867,-0.48465 -0.16867,-0.48465 -0.11253,-0.32331 -0.337327,-0.56251 -0.674658,-0.7174 l -0.505998,-0.23234 -0.168666,-0.52722 c -0.112444,-0.35148 -0.28111,-0.65381 -0.505997,-0.907 -0.224888,-0.25319 -0.337332,-0.49223 -0.337332,-0.71712 0,-0.22489 0.112444,-0.43562 0.337332,-0.63221 l 0.674663,-0.58976"
             id="path1137" />
          <path
             style="display:inline;opacity:1;fill:#720000;fill-opacity:1"
             d="m 98.962644,142.35294 0.505998,0.23211 c 0.337406,0.15477 0.562208,0.39403 0.674658,0.7174 l 0.16867,0.48505 c 0,0 -0.208,-0.0264 -0.318594,-0.0735 -0.07203,-0.0269 -0.142118,-0.0519 -0.206391,-0.0833 -0.337331,-0.15494 -0.543231,-0.39921 -0.655675,-0.75069"
             id="path1138" />
          <path
             style="display:inline;opacity:1;fill:#ff0000;fill-opacity:1"
             d="m 95.251995,142.56044 q 0,-0.33733 0.337332,-0.29488 0.337332,0.0425 0.337332,0.37978 0,0.33733 -0.337332,0.29488 -0.337332,-0.0425 -0.337332,-0.37978"
             id="path1139" />
          <path
             style="display:inline;opacity:1;fill:#aa0f01;fill-opacity:1"
             d="m 104.69728,143.749 q 0,-0.33733 0.33733,-0.29488 0.33734,0.0425 0.33734,0.37978 0,0.33733 -0.33734,0.29488 -0.33733,-0.0425 -0.33733,-0.37978"
             id="path1140" />
          <path
             style="display:inline;opacity:1;fill:#ff0000;fill-opacity:1"
             d="m 97.613317,144.2069 q 0.337332,-0.29488 0.674664,-0.25243 0.337331,0.0425 0.337331,0.37978 0,0.33734 -0.337331,0.63222 -0.337332,0.29488 -0.674664,0.58976 -0.337331,0.29488 -0.674663,0.25243 -0.337332,-0.0425 -0.337332,-0.37977 0,-0.33733 0.337332,-0.63222 0.337332,-0.29488 0.674663,-0.58977"
             id="path1141" />
        </g>
      </g>
    </g>
  </g>
  <rect
     style="display:none;opacity:1;fill:#404040;fill-opacity:1;stroke-width:8.34074;stroke-linejoin:round"
     id="rect4"
     width="111.20969"
     height="111.20969"
     x="5.8899391e-06"
     y="3.3410672e-06" />
  <g
     id="g4"
     style="display:inline"
     transform="translate(-43.988069,-70.819257)">
    <path
       id="path16"
       style="display:none;opacity:1;fill:#ffffff;stroke-width:6.00001;stroke-linejoin:round"
       d="M 103.81913,95.103806 56.291647,122.60634 8.7641612,95.10381 8.764161,40.09874 56.291647,12.596207 103.81913,40.09874 Z"
       transform="matrix(1.184402,0,0,1.1817093,37.251106,45.114943)" />
    <path
       style="display:none;opacity:1;fill:#ffffff;fill-opacity:1;stroke-width:6.00001;stroke-linejoin:round"
       d="M 51.961523,99.999997 43.301269,105 v 55 l 47.631396,27.49999 8.660254,-5 L 51.961527,155 Z"
       id="path24" />
    <path
       style="display:inline;opacity:1;fill:#c19053;fill-opacity:1;stroke-width:6.00001;stroke-linejoin:round"
       d="m 56.29165,110.5 8.660253,-5.00001 v 31.80263 L 56.29165,152.5 Z"
       id="path23" />
    <path
       id="path19"
       style="display:none;opacity:1;fill:#5886f0;fill-opacity:1;stroke-width:6.00629;stroke-linejoin:round"
       d="m 151.55444,152.49999 -47.63139,27.5 -47.6314,-27.5 V 97.499997 l 47.6314,-27.499998 47.63139,27.499998 z" />
    <path
       id="path20"
       style="display:inline;opacity:1;fill:#d29463;fill-opacity:1;stroke-width:4.91424;stroke-linejoin:round"
       d="M 142.89419,147.5 103.92305,170 64.951901,147.5 v -45 L 103.92305,79.999998 142.89419,102.5 Z" />
    <path
       style="display:inline;opacity:1;fill:#c37954;fill-opacity:1;stroke-width:6.00001;stroke-linejoin:round"
       d="m 64.9519,102.5 3e-6,44.99999 38.971137,22.5 v -45 z"
       id="path4" />
    <g
       id="g36"
       style="display:inline;opacity:0.286449">
      <path
         style="display:inline;opacity:1;fill:#f1e1c8;fill-opacity:1;stroke-width:6.00001;stroke-linejoin:round"
         d="m 95.262781,130 -21.65063,-12.5 v 24.99999 l 21.65063,12.5 z"
         id="path37" />
      <path
         style="opacity:1;fill:#daa488;fill-opacity:1;stroke-width:6.00001;stroke-linejoin:round"
         d="m 103.05702,130.5 -4.330135,-7.5 -7.79423,4.49999 4.33013,2.50001 v 5 z"
         id="path33" />
      <path
         style="opacity:1;fill:#daa488;fill-opacity:1;stroke-width:6.00001;stroke-linejoin:round"
         d="M 77.942275,119.99999 70.148045,106.5 l -4.33012,2.5 7.79423,13.49999 V 117.5 Z"
         id="path34" />
      <path
         style="opacity:1;fill:#daa488;fill-opacity:1;stroke-width:6.00001;stroke-linejoin:round"
         d="m 65.817925,142 4.33012,7.5 7.79423,-4.50001 -4.33012,-2.5 V 137.5 Z"
         id="path35" />
      <path
         style="opacity:1;fill:#daa488;fill-opacity:1;stroke-width:6.00001;stroke-linejoin:round"
         d="m 95.262785,149.99999 7.794235,13.50001 -4.330135,2.5 -7.79423,-13.50001 4.33013,2.5 z"
         id="path36" />
    </g>
    <path
       style="display:inline;opacity:1;fill:#edca55;fill-opacity:1;stroke-width:6.00001;stroke-linejoin:round"
       d="m 56.29165,110.5 43.301273,25 v 15 l -4.330127,2.5 -4e-6,22 -38.971142,-22.5 z"
       id="path22" />
    <g
       id="g10"
       style="display:none">
      <path
         style="opacity:1;fill:#c37954;fill-opacity:1;stroke-width:3.75001;stroke-linejoin:round"
         d="M 113.44932,158.49999 118.64548,155.5 v -4 l 10.3923,-6 v 3.99999 L 134.23393,146.5 v -10 l -5.19615,3 v -7 l -10.3923,6 v 7 l -5.19068,3 z"
         id="path8" />
      <path
         style="opacity:1;fill:#c37954;fill-opacity:1;stroke-width:3.75001;stroke-linejoin:round"
         d="m 118.64548,138.5 v -12 l -11.25833,6.5 v 12 z"
         id="path9" />
      <path
         style="opacity:1;fill:#c37954;fill-opacity:1;stroke-width:3.75001;stroke-linejoin:round"
         d="m 129.03778,132.5 v -12 l 10.39231,-6 v 12 z"
         id="path10" />
    </g>
    <g
       id="g32">
      <path
         style="opacity:1;fill:#f1e1c8;fill-opacity:1;stroke-width:6.00001;stroke-linejoin:round"
         d="m 112.5833,130 21.65063,-12.5 v 24.99999 l -21.65063,12.5 z"
         id="path11" />
      <path
         style="opacity:1;fill:#d87c7c;fill-opacity:1;stroke-width:6.00001;stroke-linejoin:round"
         d="m 122.10958,135.49999 2.59807,-1.5 v 3 l -2.59807,1.5 z"
         id="path12" />
      <path
         style="opacity:1;fill:#edca55;fill-opacity:1;stroke-width:6.00001;stroke-linejoin:round"
         d="m 116.91343,138.5 2.59807,-1.5 v 3 l -2.59807,1.5 z"
         id="path13" />
      <path
         style="opacity:1;fill:#c94b4b;fill-opacity:1;stroke-width:6.00001;stroke-linejoin:round"
         d="m 127.30573,132.5 2.59807,-1.5 v 3 l -2.59807,1.5 z"
         id="path14" />
      <path
         style="opacity:1;fill:#ae3535;fill-opacity:1;stroke-width:6.00001;stroke-linejoin:round"
         d="m 122.10958,129.49999 2.59807,-1.5 v 3 l -2.59807,1.5 z"
         id="path15" />
      <path
         style="opacity:1;fill:#ce5e5e;fill-opacity:1;stroke-width:6.00001;stroke-linejoin:round"
         d="m 116.91343,132.5 2.59807,-1.5 v 3 l -2.59807,1.5 z"
         id="path17" />
      <path
         style="opacity:1;fill:#31a252;fill-opacity:1;stroke-width:6.00001;stroke-linejoin:round"
         d="m 127.30573,126.5 2.59807,-1.5 v 3 l -2.59807,1.5 z"
         id="path25" />
      <path
         style="opacity:1;fill:#59c94b;fill-opacity:1;stroke-width:6.00001;stroke-linejoin:round"
         d="m 122.10958,141.49999 2.59807,-1.5 v 3 l -2.59807,1.5 z"
         id="path26" />
      <path
         style="opacity:1;fill:#c94b4b;fill-opacity:1;stroke-width:6.00001;stroke-linejoin:round"
         d="m 116.91343,144.5 2.59807,-1.5 v 3 l -2.59807,1.5 z"
         id="path27" />
      <path
         style="opacity:1;fill:#c9764b;fill-opacity:1;stroke-width:6.00001;stroke-linejoin:round"
         d="m 127.30573,138.5 2.59807,-1.5 v 3 l -2.59807,1.5 z"
         id="path28" />
      <path
         style="opacity:1;fill:#daa488;fill-opacity:1;stroke-width:6.00001;stroke-linejoin:round"
         d="m 104.78907,130.5 4.33013,-7.5 7.79423,4.49999 L 112.5833,130 v 5 z"
         id="path29" />
      <path
         style="opacity:1;fill:#daa488;fill-opacity:1;stroke-width:6.00001;stroke-linejoin:round"
         d="m 129.90381,119.99999 7.79423,-13.49999 4.33012,2.5 -7.79423,13.49999 V 117.5 Z"
         id="path30" />
      <path
         style="opacity:1;fill:#daa488;fill-opacity:1;stroke-width:6.00001;stroke-linejoin:round"
         d="m 142.02816,142 -4.33012,7.5 -7.79423,-4.50001 4.33012,-2.5 V 137.5 Z"
         id="path31" />
      <path
         style="opacity:1;fill:#daa488;fill-opacity:1;stroke-width:6.00001;stroke-linejoin:round"
         d="m 112.5833,149.99999 -7.79423,13.50001 4.33013,2.5 7.79423,-13.50001 -4.33013,2.5 z"
         id="path32" />
    </g>
    <path
       style="display:inline;opacity:1;fill:#f1e1c8;fill-opacity:1;stroke-width:6.00001;stroke-linejoin:round"
       d="m 119.5115,88.999997 7.79423,4.5 L 88.33459,116 v 10 l -7.79423,-4.5 v -10 z"
       id="path21" />
    <path
       style="display:inline;opacity:1;fill:#dcc5a5;fill-opacity:1;stroke-width:6.00001;stroke-linejoin:round"
       d="m 88.33459,116 v 10 l -7.79423,-4.5 v -10 z"
       id="path5" />
  </g>
  <g
     id="g3"
     style="display:none"
     transform="translate(-43.988069,-70.819257)">
    <path
       style="opacity:1;fill:#ffffff;fill-opacity:1;stroke-width:6.00001;stroke-linejoin:round"
       d="M 103.92304,79.999998 119.5115,88.999996 80.540359,111.5 l 1e-6,5 -15.588457,-9 v -5.00001 z"
       id="path1" />
    <path
       style="opacity:1;fill:#ffffff;fill-opacity:1;stroke-width:6.00001;stroke-linejoin:round"
       d="m 88.334589,121 -2e-6,-5.00001 38.971143,-22.499993 15.58846,8.999993 v 45 l -38.97115,22.5 L 100.45894,168 v -16 l 3.46411,-2 v -20 z"
       id="path2" />
    <path
       style="opacity:1;fill:#ffffff;fill-opacity:1;stroke-width:6.00001;stroke-linejoin:round"
       d="M 95.262792,175 56.29165,151.5 v -44 l 43.301267,25 v 14.99999 l -4.330126,2.5 z"
       id="path3" />
  </g>
</svg>
